<mxfile host="app.diagrams.net" modified="2023-02-23T12:51:35.538Z" agent="5.0 (Windows NT 10.0; Win64; x64) AppleWebKit/537.36 (KHTML, like Gecko) Chrome/110.0.0.0 Safari/537.36" etag="feciIo80TxSak9OZ97_0" version="20.8.20" type="github">
  <diagram name="第 1 页" id="KysIJ6BMwOQy8PrzUjef">
    <mxGraphModel dx="1050" dy="541" grid="1" gridSize="10" guides="1" tooltips="1" connect="1" arrows="1" fold="1" page="1" pageScale="1" pageWidth="3300" pageHeight="4681" math="0" shadow="0">
      <root>
        <mxCell id="0" />
        <mxCell id="1" parent="0" />
        <mxCell id="9iYqqixDo-sKYFF2sB4v-3" value="" style="edgeStyle=orthogonalEdgeStyle;rounded=0;orthogonalLoop=1;jettySize=auto;html=1;" parent="1" target="9iYqqixDo-sKYFF2sB4v-2" edge="1">
          <mxGeometry relative="1" as="geometry">
            <mxPoint x="270" y="180" as="sourcePoint" />
          </mxGeometry>
        </mxCell>
        <mxCell id="9iYqqixDo-sKYFF2sB4v-5" value="" style="edgeStyle=orthogonalEdgeStyle;rounded=0;orthogonalLoop=1;jettySize=auto;html=1;" parent="1" source="9iYqqixDo-sKYFF2sB4v-2" target="9iYqqixDo-sKYFF2sB4v-4" edge="1">
          <mxGeometry relative="1" as="geometry" />
        </mxCell>
        <mxCell id="9iYqqixDo-sKYFF2sB4v-2" value="查询首页埋点数据&lt;br&gt;&lt;div&gt;tb_page_active_user&lt;/div&gt;&lt;div&gt;(gmtCreate&amp;lt;当天 00:00:00)&lt;/div&gt;" style="whiteSpace=wrap;html=1;rounded=0;" parent="1" vertex="1">
          <mxGeometry x="195" y="230" width="150" height="60" as="geometry" />
        </mxCell>
        <mxCell id="9iYqqixDo-sKYFF2sB4v-7" value="" style="edgeStyle=orthogonalEdgeStyle;rounded=0;orthogonalLoop=1;jettySize=auto;html=1;" parent="1" source="9iYqqixDo-sKYFF2sB4v-4" target="9iYqqixDo-sKYFF2sB4v-6" edge="1">
          <mxGeometry relative="1" as="geometry" />
        </mxCell>
        <mxCell id="9iYqqixDo-sKYFF2sB4v-4" value="过滤掉已产生任务的用户(task_detail&lt;span style=&quot;background-color: initial;&quot;&gt;)&lt;/span&gt;" style="whiteSpace=wrap;html=1;rounded=0;" parent="1" vertex="1">
          <mxGeometry x="210" y="350" width="120" height="60" as="geometry" />
        </mxCell>
        <mxCell id="9iYqqixDo-sKYFF2sB4v-9" value="" style="edgeStyle=orthogonalEdgeStyle;rounded=0;orthogonalLoop=1;jettySize=auto;html=1;" parent="1" source="9iYqqixDo-sKYFF2sB4v-6" target="9iYqqixDo-sKYFF2sB4v-8" edge="1">
          <mxGeometry relative="1" as="geometry" />
        </mxCell>
        <mxCell id="9iYqqixDo-sKYFF2sB4v-6" value="过滤掉已经发送过消息通知的用户" style="whiteSpace=wrap;html=1;rounded=0;" parent="1" vertex="1">
          <mxGeometry x="210" y="460" width="120" height="60" as="geometry" />
        </mxCell>
        <mxCell id="9iYqqixDo-sKYFF2sB4v-11" value="" style="edgeStyle=orthogonalEdgeStyle;rounded=0;orthogonalLoop=1;jettySize=auto;html=1;" parent="1" source="9iYqqixDo-sKYFF2sB4v-8" target="9iYqqixDo-sKYFF2sB4v-10" edge="1">
          <mxGeometry relative="1" as="geometry" />
        </mxCell>
        <mxCell id="9iYqqixDo-sKYFF2sB4v-8" value="发送贝小秘，push，公众号模板消息" style="whiteSpace=wrap;html=1;rounded=0;" parent="1" vertex="1">
          <mxGeometry x="210" y="570" width="120" height="60" as="geometry" />
        </mxCell>
        <mxCell id="9iYqqixDo-sKYFF2sB4v-40" value="" style="edgeStyle=orthogonalEdgeStyle;rounded=0;orthogonalLoop=1;jettySize=auto;html=1;" parent="1" source="9iYqqixDo-sKYFF2sB4v-10" target="9iYqqixDo-sKYFF2sB4v-39" edge="1">
          <mxGeometry relative="1" as="geometry" />
        </mxCell>
        <mxCell id="9iYqqixDo-sKYFF2sB4v-10" value="添加已发消息记录&lt;br&gt;cache(event:time:book:send:message:actCode:tb2022:type:1&lt;span style=&quot;background-color: initial;&quot;&gt;)&lt;/span&gt;" style="whiteSpace=wrap;html=1;rounded=0;" parent="1" vertex="1">
          <mxGeometry x="210" y="670" width="120" height="60" as="geometry" />
        </mxCell>
        <mxCell id="9iYqqixDo-sKYFF2sB4v-14" value="" style="edgeStyle=orthogonalEdgeStyle;rounded=0;orthogonalLoop=1;jettySize=auto;html=1;" parent="1" target="9iYqqixDo-sKYFF2sB4v-13" edge="1">
          <mxGeometry relative="1" as="geometry">
            <mxPoint x="610" y="180" as="sourcePoint" />
          </mxGeometry>
        </mxCell>
        <mxCell id="2E07oz08p9Ll80AfmE3G-2" value="" style="edgeStyle=orthogonalEdgeStyle;rounded=0;orthogonalLoop=1;jettySize=auto;html=1;" edge="1" parent="1" source="9iYqqixDo-sKYFF2sB4v-13" target="2E07oz08p9Ll80AfmE3G-1">
          <mxGeometry relative="1" as="geometry" />
        </mxCell>
        <mxCell id="9iYqqixDo-sKYFF2sB4v-13" value="查询所有产生任务的用户数据&lt;br&gt;(task_detail)&lt;br&gt;任务创建时间&amp;lt;当天 00:00:00&lt;br&gt;" style="whiteSpace=wrap;html=1;rounded=0;" parent="1" vertex="1">
          <mxGeometry x="550" y="210" width="120" height="70" as="geometry" />
        </mxCell>
        <mxCell id="9iYqqixDo-sKYFF2sB4v-18" value="" style="edgeStyle=orthogonalEdgeStyle;rounded=0;orthogonalLoop=1;jettySize=auto;html=1;" parent="1" source="9iYqqixDo-sKYFF2sB4v-15" target="9iYqqixDo-sKYFF2sB4v-17" edge="1">
          <mxGeometry relative="1" as="geometry" />
        </mxCell>
        <mxCell id="9iYqqixDo-sKYFF2sB4v-15" value="查询所有任务已得分数&lt;br&gt;(grant)" style="whiteSpace=wrap;html=1;rounded=0;" parent="1" vertex="1">
          <mxGeometry x="550" y="320" width="120" height="60" as="geometry" />
        </mxCell>
        <mxCell id="9iYqqixDo-sKYFF2sB4v-20" value="" style="edgeStyle=orthogonalEdgeStyle;rounded=0;orthogonalLoop=1;jettySize=auto;html=1;" parent="1" source="9iYqqixDo-sKYFF2sB4v-17" target="9iYqqixDo-sKYFF2sB4v-19" edge="1">
          <mxGeometry relative="1" as="geometry" />
        </mxCell>
        <mxCell id="9iYqqixDo-sKYFF2sB4v-17" value="合并计算出每位用户的任务分数" style="whiteSpace=wrap;html=1;rounded=0;" parent="1" vertex="1">
          <mxGeometry x="550" y="420" width="120" height="60" as="geometry" />
        </mxCell>
        <mxCell id="9iYqqixDo-sKYFF2sB4v-22" value="是" style="edgeStyle=orthogonalEdgeStyle;rounded=0;orthogonalLoop=1;jettySize=auto;html=1;" parent="1" source="9iYqqixDo-sKYFF2sB4v-19" target="9iYqqixDo-sKYFF2sB4v-21" edge="1">
          <mxGeometry relative="1" as="geometry">
            <Array as="points">
              <mxPoint x="610" y="620" />
              <mxPoint x="610" y="620" />
            </Array>
          </mxGeometry>
        </mxCell>
        <mxCell id="9iYqqixDo-sKYFF2sB4v-27" value="否" style="edgeStyle=orthogonalEdgeStyle;rounded=0;orthogonalLoop=1;jettySize=auto;html=1;" parent="1" source="9iYqqixDo-sKYFF2sB4v-19" target="9iYqqixDo-sKYFF2sB4v-26" edge="1">
          <mxGeometry relative="1" as="geometry" />
        </mxCell>
        <mxCell id="9iYqqixDo-sKYFF2sB4v-19" value="分数=0" style="rhombus;whiteSpace=wrap;html=1;rounded=0;" parent="1" vertex="1">
          <mxGeometry x="570" y="520" width="80" height="80" as="geometry" />
        </mxCell>
        <mxCell id="9iYqqixDo-sKYFF2sB4v-34" value="" style="edgeStyle=orthogonalEdgeStyle;rounded=0;orthogonalLoop=1;jettySize=auto;html=1;" parent="1" source="9iYqqixDo-sKYFF2sB4v-21" target="9iYqqixDo-sKYFF2sB4v-33" edge="1">
          <mxGeometry relative="1" as="geometry" />
        </mxCell>
        <mxCell id="9iYqqixDo-sKYFF2sB4v-21" value="过滤已发送消息的用户" style="whiteSpace=wrap;html=1;rounded=0;" parent="1" vertex="1">
          <mxGeometry x="550" y="650" width="120" height="60" as="geometry" />
        </mxCell>
        <mxCell id="9iYqqixDo-sKYFF2sB4v-29" value="是" style="edgeStyle=orthogonalEdgeStyle;rounded=0;orthogonalLoop=1;jettySize=auto;html=1;" parent="1" source="9iYqqixDo-sKYFF2sB4v-26" target="9iYqqixDo-sKYFF2sB4v-28" edge="1">
          <mxGeometry relative="1" as="geometry" />
        </mxCell>
        <mxCell id="9iYqqixDo-sKYFF2sB4v-31" value="否" style="edgeStyle=orthogonalEdgeStyle;rounded=0;orthogonalLoop=1;jettySize=auto;html=1;entryX=1;entryY=0.5;entryDx=0;entryDy=0;entryPerimeter=0;" parent="1" source="9iYqqixDo-sKYFF2sB4v-26" target="9iYqqixDo-sKYFF2sB4v-41" edge="1">
          <mxGeometry x="-0.0909" relative="1" as="geometry">
            <mxPoint x="950" y="650" as="targetPoint" />
            <Array as="points">
              <mxPoint x="880" y="560" />
              <mxPoint x="880" y="1020" />
            </Array>
            <mxPoint as="offset" />
          </mxGeometry>
        </mxCell>
        <mxCell id="9iYqqixDo-sKYFF2sB4v-26" value="分数&amp;lt;9" style="rhombus;whiteSpace=wrap;html=1;rounded=0;" parent="1" vertex="1">
          <mxGeometry x="740" y="520" width="80" height="80" as="geometry" />
        </mxCell>
        <mxCell id="9iYqqixDo-sKYFF2sB4v-36" value="" style="edgeStyle=orthogonalEdgeStyle;rounded=0;orthogonalLoop=1;jettySize=auto;html=1;" parent="1" source="9iYqqixDo-sKYFF2sB4v-28" target="9iYqqixDo-sKYFF2sB4v-35" edge="1">
          <mxGeometry relative="1" as="geometry" />
        </mxCell>
        <mxCell id="9iYqqixDo-sKYFF2sB4v-28" value="过滤已经发送消息的用户" style="whiteSpace=wrap;html=1;rounded=0;" parent="1" vertex="1">
          <mxGeometry x="720" y="650" width="120" height="60" as="geometry" />
        </mxCell>
        <mxCell id="9iYqqixDo-sKYFF2sB4v-43" value="" style="edgeStyle=orthogonalEdgeStyle;rounded=0;orthogonalLoop=1;jettySize=auto;html=1;" parent="1" source="9iYqqixDo-sKYFF2sB4v-33" target="9iYqqixDo-sKYFF2sB4v-42" edge="1">
          <mxGeometry relative="1" as="geometry" />
        </mxCell>
        <mxCell id="9iYqqixDo-sKYFF2sB4v-33" value="发送消息" style="whiteSpace=wrap;html=1;rounded=0;" parent="1" vertex="1">
          <mxGeometry x="550" y="790" width="120" height="60" as="geometry" />
        </mxCell>
        <mxCell id="9iYqqixDo-sKYFF2sB4v-44" value="" style="edgeStyle=orthogonalEdgeStyle;rounded=0;orthogonalLoop=1;jettySize=auto;html=1;" parent="1" source="9iYqqixDo-sKYFF2sB4v-35" target="9iYqqixDo-sKYFF2sB4v-42" edge="1">
          <mxGeometry relative="1" as="geometry" />
        </mxCell>
        <mxCell id="9iYqqixDo-sKYFF2sB4v-35" value="发送消息" style="whiteSpace=wrap;html=1;rounded=0;" parent="1" vertex="1">
          <mxGeometry x="720" y="790" width="120" height="60" as="geometry" />
        </mxCell>
        <mxCell id="9iYqqixDo-sKYFF2sB4v-37" value="第一阶段消息" style="strokeWidth=2;html=1;shape=mxgraph.flowchart.terminator;whiteSpace=wrap;" parent="1" vertex="1">
          <mxGeometry x="220" y="120" width="100" height="60" as="geometry" />
        </mxCell>
        <mxCell id="9iYqqixDo-sKYFF2sB4v-38" value="第二/三阶段消息" style="strokeWidth=2;html=1;shape=mxgraph.flowchart.terminator;whiteSpace=wrap;" parent="1" vertex="1">
          <mxGeometry x="560" y="120" width="100" height="60" as="geometry" />
        </mxCell>
        <mxCell id="9iYqqixDo-sKYFF2sB4v-39" value="END" style="strokeWidth=2;html=1;shape=mxgraph.flowchart.terminator;whiteSpace=wrap;" parent="1" vertex="1">
          <mxGeometry x="220" y="770" width="100" height="60" as="geometry" />
        </mxCell>
        <mxCell id="9iYqqixDo-sKYFF2sB4v-41" value="END" style="strokeWidth=2;html=1;shape=mxgraph.flowchart.terminator;whiteSpace=wrap;" parent="1" vertex="1">
          <mxGeometry x="650" y="990" width="100" height="60" as="geometry" />
        </mxCell>
        <mxCell id="9iYqqixDo-sKYFF2sB4v-45" value="" style="edgeStyle=orthogonalEdgeStyle;rounded=0;orthogonalLoop=1;jettySize=auto;html=1;" parent="1" source="9iYqqixDo-sKYFF2sB4v-42" target="9iYqqixDo-sKYFF2sB4v-41" edge="1">
          <mxGeometry relative="1" as="geometry" />
        </mxCell>
        <mxCell id="9iYqqixDo-sKYFF2sB4v-42" value="添加发送记录" style="whiteSpace=wrap;html=1;rounded=0;" parent="1" vertex="1">
          <mxGeometry x="640" y="890" width="120" height="60" as="geometry" />
        </mxCell>
        <mxCell id="2E07oz08p9Ll80AfmE3G-4" value="" style="edgeStyle=orthogonalEdgeStyle;rounded=0;orthogonalLoop=1;jettySize=auto;html=1;" edge="1" parent="1" source="2E07oz08p9Ll80AfmE3G-1" target="2E07oz08p9Ll80AfmE3G-3">
          <mxGeometry relative="1" as="geometry" />
        </mxCell>
        <mxCell id="2E07oz08p9Ll80AfmE3G-1" value="统计出当天有发生数据变更的用户" style="whiteSpace=wrap;html=1;rounded=0;" vertex="1" parent="1">
          <mxGeometry x="730" y="210" width="120" height="70" as="geometry" />
        </mxCell>
        <mxCell id="2E07oz08p9Ll80AfmE3G-15" value="" style="edgeStyle=orthogonalEdgeStyle;rounded=0;orthogonalLoop=1;jettySize=auto;html=1;" edge="1" parent="1" source="2E07oz08p9Ll80AfmE3G-3" target="9iYqqixDo-sKYFF2sB4v-15">
          <mxGeometry relative="1" as="geometry" />
        </mxCell>
        <mxCell id="2E07oz08p9Ll80AfmE3G-3" value="过滤用户" style="whiteSpace=wrap;html=1;rounded=0;align=center;horizontal=1;verticalAlign=top;" vertex="1" parent="1">
          <mxGeometry x="730" y="320" width="120" height="60" as="geometry" />
        </mxCell>
        <mxCell id="2E07oz08p9Ll80AfmE3G-6" value="1" style="ellipse;whiteSpace=wrap;html=1;aspect=fixed;" vertex="1" parent="1">
          <mxGeometry x="520" y="250" width="30" height="30" as="geometry" />
        </mxCell>
        <mxCell id="2E07oz08p9Ll80AfmE3G-8" value="2" style="ellipse;whiteSpace=wrap;html=1;aspect=fixed;" vertex="1" parent="1">
          <mxGeometry x="700" y="250" width="30" height="30" as="geometry" />
        </mxCell>
        <mxCell id="2E07oz08p9Ll80AfmE3G-9" value="1" style="ellipse;whiteSpace=wrap;html=1;aspect=fixed;" vertex="1" parent="1">
          <mxGeometry x="750" y="350" width="30" height="30" as="geometry" />
        </mxCell>
        <mxCell id="2E07oz08p9Ll80AfmE3G-10" value="2" style="ellipse;whiteSpace=wrap;html=1;aspect=fixed;" vertex="1" parent="1">
          <mxGeometry x="800" y="350" width="30" height="30" as="geometry" />
        </mxCell>
        <mxCell id="2E07oz08p9Ll80AfmE3G-11" value="减" style="text;html=1;strokeColor=none;fillColor=none;align=center;verticalAlign=middle;whiteSpace=wrap;rounded=0;" vertex="1" parent="1">
          <mxGeometry x="760" y="350" width="60" height="30" as="geometry" />
        </mxCell>
      </root>
    </mxGraphModel>
  </diagram>
</mxfile>
